<?xml version="1.0" standalone="no"?>
<!DOCTYPE svg PUBLIC "-//W3C//DTD SVG 20010904//EN"
 "http://www.w3.org/TR/2001/REC-SVG-20010904/DTD/svg10.dtd">
<svg version="1.0" xmlns="http://www.w3.org/2000/svg"
 width="512.000000pt" height="512.000000pt" viewBox="0 0 512.000000 512.000000"
 preserveAspectRatio="xMidYMid meet">
<metadata>
Created by potrace 1.14, written by Peter Selinger 2001-2017
</metadata>
<g transform="translate(0.000000,512.000000) scale(0.100000,-0.100000)"
fill="#000000" stroke="none">
<path d="M2530 4953 c-8 -3 -54 -30 -103 -60 -48 -29 -92 -53 -97 -53 -6 0
-10 -4 -10 -10 0 -5 -5 -10 -10 -10 -10 0 -35 -14 -136 -77 -28 -18 -60 -37
-604 -361 -272 -162 -539 -322 -593 -354 -53 -32 -111 -66 -127 -76 -277 -160
-513 -309 -521 -330 -5 -14 -8 -709 -7 -1728 l3 -1705 25 -19 c25 -19 68 -19
2208 -15 1956 4 2185 6 2206 20 13 9 27 26 30 38 3 12 6 783 6 1712 -1 1329
-3 1695 -13 1712 -11 19 -118 93 -167 116 -8 4 -32 17 -52 29 -46 29 -478 286
-526 313 -9 6 -33 20 -52 31 -19 12 -125 74 -235 139 -110 65 -292 173 -405
240 -113 67 -306 182 -430 255 -124 73 -246 145 -271 161 -48 30 -94 42 -119
32z"/>
</g>
</svg>
